<!-- <?xml version="1.0" standalone="no"?>
<svg viewBox="0 0 200 200" xmlns="http://www.w3.org/2000/svg">
  <path fill="#33D1CC" d="M46,-70.5C60.2,-62.5,72.6,-50.6,80.9,-35.9C89.2,-21.2,93.5,-3.6,91,13C88.4,29.5,79.1,45,66.5,55.2C53.9,65.4,38,70.4,21.9,75.4C5.9,80.4,-10.4,85.6,-24.4,82C-38.5,78.4,-50.4,66.2,-61.7,53.3C-73,40.5,-83.7,27,-84.8,12.8C-85.8,-1.4,-77.2,-16.4,-68.6,-29.7C-60,-43.1,-51.4,-54.9,-40,-64.1C-28.5,-73.3,-14.3,-80,0.8,-81.3C15.9,-82.5,31.8,-78.4,46,-70.5Z" transform="translate(100 100)" />
</svg> -->

<svg class="background" viewBox="0 0 200 187" xmlns="http://www.w3.org/2000/svg"
                        xmlns:xlink="http://www.w3.org/1999/xlink">
                        <mask id="mask0" mask-type="alpha">
                            <path d="M190.312 36.4879C206.582 62.1187 201.309 102.826 182.328 134.186C163.346 165.547 
                            130.807 187.559 100.226 186.353C69.6454 185.297 41.0228 161.023 21.7403 129.362C2.45775 
                            97.8511 -7.48481 59.1033 6.67581 34.5279C20.9871 10.1032 59.7028 -0.149132 97.9666 
                            0.00163737C136.23 0.303176 174.193 10.857 190.312 36.4879Z" />
                        </mask>
                        <g mask="url(#mask0)">
                            <path fill="#33D1CC"  d="M190.312 36.4879C206.582 62.1187 201.309 102.826 182.328 134.186C163.346 
                            165.547 130.807 187.559 100.226 186.353C69.6454 185.297 41.0228 161.023 21.7403 
                            129.362C2.45775 97.8511 -7.48481 59.1033 6.67581 34.5279C20.9871 10.1032 59.7028 
                            -0.149132 97.9666 0.00163737C136.23 0.303176 174.193 10.857 190.312 36.4879Z" />
                            <image href="./img/Man-PNG-Free-Download.png" class="Image" />
                        </g>
                    </svg>